<svg width="423" height="337" viewBox="0 0 423 337" fill="none" xmlns="http://www.w3.org/2000/svg">
<path fill-rule="evenodd" clip-rule="evenodd" d="M110.526 35.5198C135.354 19.3775 164.986 10 196.807 10C248.852 10 295.037 35.0838 323.934 73.8214C322.341 75.3383 320.814 77.003 319.349 78.7807C313.349 86.0609 307.91 95.8139 302.823 106.898C294.81 124.357 287.332 145.896 279.841 167.751C254.382 140.902 203.427 99.5 154.773 99.5C151.963 99.5 149.164 99.6481 146.38 99.9326C144.576 91.3641 142.437 83.2282 139.821 75.7507C133.69 58.2262 124.636 43.5265 110.526 35.5198ZM167.68 239.841C208.677 234.034 248.348 208.863 272.454 189.204C263.228 215.639 253.709 240.761 242.773 258.891C231.09 278.261 219.232 287.357 206.132 285.074C187.67 281.857 176.434 267.1 168.953 243.978C168.514 242.622 168.09 241.242 167.68 239.841ZM159.438 247.057C158.785 245.037 158.163 242.972 157.571 240.866C156.639 240.922 155.706 240.966 154.773 241C105.255 242.781 61.0512 210.587 39.6107 188.923C49.6306 266.814 116.19 327 196.807 327C261.057 327 316.378 288.771 341.265 233.819L284.639 184.583C284.177 185.924 283.713 187.266 283.248 188.609C273.646 216.318 263.43 244.005 251.336 264.056C239.457 283.75 224.315 298.393 204.415 294.926C180.377 290.737 167.3 271.354 159.438 247.057ZM130.382 79.0529C132.799 85.9622 134.795 93.5048 136.497 101.512C94.5276 110.597 57.1922 148.428 38.3867 173.571C38.3338 171.887 38.3071 170.197 38.3071 168.5C38.3071 116.887 62.9765 71.0366 101.167 42.0957C114.855 47.674 123.93 60.6089 130.382 79.0529ZM294.208 156.776L343.73 108.924C339.91 99.5133 335.212 90.5524 329.738 82.1432C328.856 83.0512 327.965 84.0493 327.066 85.1405C321.87 91.445 316.855 100.297 311.911 111.069C305.809 124.364 300.021 140.106 294.208 156.776ZM99.4441 30.9599C97.2116 30.3483 94.8792 29.8735 92.4417 29.5448C77.3719 27.5129 60.2869 30.6268 44.1662 36.0996C27.9786 41.5951 12.3389 49.6138 0 57.8398L5.54704 66.1603C17.2081 58.3862 32.0685 50.7672 47.3809 45.5688C61.8437 40.6588 76.3381 38.035 88.7679 39.1897C51.8128 70.099 28.3071 116.554 28.3071 168.5C28.3071 261.56 103.747 337 196.807 337C289.867 337 365.307 261.56 365.307 168.5C365.307 134.414 355.186 102.692 337.785 76.1745C339.193 75.5426 340.581 75.1407 341.949 74.9541C364.491 71.8801 380.965 89.0054 392.845 111.663C403.886 132.72 409.742 156.384 412.057 165.739C412.191 166.279 412.312 166.771 412.423 167.213L422.124 164.787C422.022 164.377 421.908 163.916 421.782 163.41L421.763 163.333L421.759 163.315L421.75 163.278C419.437 153.915 413.329 129.195 401.702 107.019C389.582 83.9036 370.056 61.0288 340.598 65.0458C337.557 65.4605 334.689 66.4459 331.982 67.8849C301.264 26.6824 252.152 0 196.807 0C160.535 0 126.939 11.4613 99.4441 30.9599ZM104.773 157C96.7653 157 90.2734 163.492 90.2734 171.5C90.2734 179.508 96.7653 186 104.773 186C112.782 186 119.273 179.508 119.273 171.5C119.273 163.492 112.782 157 104.773 157ZM198.274 81.0002C226.416 81 246.195 93.5187 265.151 113.446L272.396 106.554C252.352 85.482 230.131 71 198.273 71.0002L198.274 81.0002Z" fill="white"/>
</svg>
